<svg xmlns="http://www.w3.org/2000/svg" xmlns:gf="http://glowforge.com/namespaces/gf" xmlns:xlink="http://www.w3.org/1999/xlink" width="20in" height="13.458333333333334in" viewBox="0 0 1920 1292"><gf:laserdefs><gf:laserdef class="le678cc34-f4bc-4d7a-8d14-87821d5346cc" order="0" type="cut" power="100" speed="762" passes="1" focal_offset="3.17" corner="NaN" materialid="Glowforge:34" settingid="cut::DEFAULT_SETTING"></gf:laserdef><gf:laserdef class="lc27dda5a-ab6c-4f20-9c48-c8f0f3ef7419" order="1" type="cut" power="100" speed="762" passes="1" focal_offset="3.17" corner="NaN" materialid="Glowforge:34" settingid="cut::DEFAULT_SETTING"></gf:laserdef></gf:laserdefs><g id="oEw"><g id="oE"><g id="g35265326-bf97-4dda-80e4-6bf399681107"><path class="e le678cc34-f4bc-4d7a-8d14-87821d5346cc le678cc34-f4bc-4d7a-8d14-87821d5346cc" id="e0" transform="matrix(1,0,0,1,-118.30109670987036,34.456630109670925)" d="M211.69521637 37.7308761L249.42608882 -1.3e-7L366.61417326 -1.3e-7L366.61417326 36.07826256A68.03149608 68.03149608 0 0 0 370.39369704 169.48866133L370.39369704 185.55830543L393.07086996 185.55830543L393.07086996 169.48866133A68.03149608 68.03149608 0 0 0 396.85039374 36.07826256L396.85039374 -1.3e-7L514.03847818 -1.3e-7L551.76935063 37.730895L457.28280194 37.73088744L551.8110237 207.8719596L551.8110237 491.35373858L451.65354336 491.35373858L451.65354336 434.66082518L311.81102364 434.66082518L311.81102364 491.35373858L211.6535433 491.35373858L211.6535433 207.8891678L304.7760227 37.7308761L211.69521637 37.7308761z"></path><path class="e lc27dda5a-ab6c-4f20-9c48-c8f0f3ef7419 lc27dda5a-ab6c-4f20-9c48-c8f0f3ef7419" id="e1" transform="matrix(1,0,0,1,-118.30109670987036,34.456630109670925)" d="M352.91338586 417.65295116L330.2362205 417.65295116L330.2362205 428.99153384L352.91338586 428.99153384L352.91338586 417.65295116z"></path><path class="e lc27dda5a-ab6c-4f20-9c48-c8f0f3ef7419 lc27dda5a-ab6c-4f20-9c48-c8f0f3ef7419" id="e2" transform="matrix(1,0,0,1,-118.30109670987036,34.456630109670925)" d="M433.2283465 417.65295116L410.55118114 417.65295116L410.55118114 428.99153384L433.2283465 428.99153384L433.2283465 417.65295116z"></path><path class="e lc27dda5a-ab6c-4f20-9c48-c8f0f3ef7419 lc27dda5a-ab6c-4f20-9c48-c8f0f3ef7419" id="e3" transform="matrix(1,0,0,1,-118.30109670987036,34.456630109670925)" d="M546.14173236 397.81043147L534.80314968 397.81043147L534.80314968 375.1332661L546.14173236 375.1332661L546.14173236 397.81043147z"></path><path class="e lc27dda5a-ab6c-4f20-9c48-c8f0f3ef7419 lc27dda5a-ab6c-4f20-9c48-c8f0f3ef7419" id="e4" transform="matrix(1,0,0,1,-118.30109670987036,34.456630109670925)" d="M534.80314968 467.73169133L546.14173236 467.73169133L546.14173236 445.05452597L534.80314968 445.05452597L534.80314968 467.73169133z"></path><path class="e lc27dda5a-ab6c-4f20-9c48-c8f0f3ef7419 lc27dda5a-ab6c-4f20-9c48-c8f0f3ef7419" id="e5" transform="matrix(1,0,0,1,-118.30109670987036,34.456630109670925)" d="M217.32283464 467.73169133L217.32283464 445.05452597L228.66141732 445.05452597L228.66141732 467.73169133L217.32283464 467.73169133z"></path><path class="e lc27dda5a-ab6c-4f20-9c48-c8f0f3ef7419 lc27dda5a-ab6c-4f20-9c48-c8f0f3ef7419" id="e6" transform="matrix(1,0,0,1,-118.30109670987036,34.456630109670925)" d="M217.32283464 397.81043147L217.32283464 375.1332661L228.66141732 375.1332661L228.66141732 397.81043147L217.32283464 397.81043147z"></path></g><g id="g8f9fe829-f3bf-4f31-9e11-266c0b877459"><path class="e le678cc34-f4bc-4d7a-8d14-87821d5346cc le678cc34-f4bc-4d7a-8d14-87821d5346cc" id="e7" transform="matrix(1,0,0,1,-118.30109670987036,34.456630109670925)" d="M534.80314968 591.51121892L483.77952762 591.51121892L483.77952762 515.92066772L279.68503938 515.92066772L279.68503938 591.51121892L228.66141732 591.51121892L228.66141732 661.43247878L217.32283464 661.43247878L217.32283464 591.51121892L211.6535433 591.51121892L211.6535433 731.35373864L243.77952756 731.35373864L243.77952756 769.14901424L205.98425196 806.94428984L366.61417326 806.94428984L366.61417326 774.81830558L396.85039374 774.81830558L396.85039374 806.94428984L557.48031504 806.94428984L519.68503944 769.14901424L519.68503944 731.35373864L551.8110237 731.35373864L551.8110237 591.51121892L546.14173236 591.51121892L546.14173236 661.43247878L534.80314968 661.43247878L534.80314968 591.51121892z"></path><path class="e lc27dda5a-ab6c-4f20-9c48-c8f0f3ef7419 lc27dda5a-ab6c-4f20-9c48-c8f0f3ef7419" id="e8" transform="matrix(1,0,0,1,-118.30109670987036,34.456630109670925)" d="M462.61417328 553.71594332A5.66929134 5.66929134 0 1 0 473.95275596 553.71594332A5.66929134 5.66929134 0 1 0 462.61417328 553.71594332z"></path><path class="e lc27dda5a-ab6c-4f20-9c48-c8f0f3ef7419 lc27dda5a-ab6c-4f20-9c48-c8f0f3ef7419" id="e9" transform="matrix(1,0,0,1,-118.30109670987036,34.456630109670925)" d="M330.2362205 657.65295122L352.91338586 657.65295122L352.91338586 668.9915339L330.2362205 668.9915339L330.2362205 657.65295122z"></path><path class="e lc27dda5a-ab6c-4f20-9c48-c8f0f3ef7419 lc27dda5a-ab6c-4f20-9c48-c8f0f3ef7419" id="e10" transform="matrix(1,0,0,1,-118.30109670987036,34.456630109670925)" d="M462.61417328 750.25137644A5.66929134 5.66929134 0 1 0 473.95275596 750.25137644A5.66929134 5.66929134 0 1 0 462.61417328 750.25137644z"></path><path class="e lc27dda5a-ab6c-4f20-9c48-c8f0f3ef7419 lc27dda5a-ab6c-4f20-9c48-c8f0f3ef7419" id="e11" transform="matrix(1,0,0,1,-118.30109670987036,34.456630109670925)" d="M289.51181104 553.71594332A5.66929134 5.66929134 0 1 0 300.85039372 553.71594332A5.66929134 5.66929134 0 1 0 289.51181104 553.71594332z"></path><path class="e lc27dda5a-ab6c-4f20-9c48-c8f0f3ef7419 lc27dda5a-ab6c-4f20-9c48-c8f0f3ef7419" id="e12" transform="matrix(1,0,0,1,-118.30109670987036,34.456630109670925)" d="M433.2283465 668.9915339L410.55118114 668.9915339L410.55118114 657.65295122L433.2283465 657.65295122L433.2283465 668.9915339z"></path><path class="e lc27dda5a-ab6c-4f20-9c48-c8f0f3ef7419 lc27dda5a-ab6c-4f20-9c48-c8f0f3ef7419" id="e13" transform="matrix(1,0,0,1,-118.30109670987036,34.456630109670925)" d="M289.51181104 750.25137644A5.66929134 5.66929134 0 1 0 300.85039372 750.25137644A5.66929134 5.66929134 0 1 0 289.51181104 750.25137644z"></path></g><g id="gf318f57a-698f-4e92-b46e-c3945321fc04"><path class="e le678cc34-f4bc-4d7a-8d14-87821d5346cc le678cc34-f4bc-4d7a-8d14-87821d5346cc" id="e14" transform="matrix(1,0,0,1,63.17048853439687,513.4037886340975)" d="M11.33858262 421.43247872L11.33858262 491.35373858L-6e-8 491.35373858L-6e-8 351.51121508L107.7165354 351.51121886L107.7165354 375.1332661L119.05511808 375.1332661L119.05511808 397.81043147L107.7165354 397.81043147L107.7165354 445.05452597L119.05511808 445.05452597L119.05511808 467.73169133L107.7165354 467.73169133L107.7165354 491.35373858L22.6771653 491.35373858L22.6771653 421.43247872L11.33858262 421.43247872z"></path><path class="e lc27dda5a-ab6c-4f20-9c48-c8f0f3ef7419 lc27dda5a-ab6c-4f20-9c48-c8f0f3ef7419" id="e15" transform="matrix(1,0,0,1,63.17048853439687,513.4037886340975)" d="M57.8267716 408.20413226A7.37007874 7.37007874 0 1 0 72.5669291 408.20413226A7.37007874 7.37007874 0 1 0 57.8267716 408.20413226z"></path><path class="e lc27dda5a-ab6c-4f20-9c48-c8f0f3ef7419 lc27dda5a-ab6c-4f20-9c48-c8f0f3ef7419" id="e16" transform="matrix(1,0,0,1,63.17048853439687,513.4037886340975)" d="M51.9685039 447.88917164A13.22834646 13.22834646 0 1 0 78.4251968 447.88917164A13.22834646 13.22834646 0 1 0 51.9685039 447.88917164z"></path></g><g id="gf29d9d0f-b6b7-435a-8267-81b75a2f2e6c"><path class="e le678cc34-f4bc-4d7a-8d14-87821d5346cc le678cc34-f4bc-4d7a-8d14-87821d5346cc" id="e17" transform="matrix(1,0,0,1,-434.15353938185456,506.5124626121636)" d="M655.7480316 491.35373858L740.7874017 491.35373858L740.7874017 421.43247872L752.12598438 421.43247872L752.12598438 491.35373858L763.46456706 491.35373858L763.46456706 351.51121508L655.7480316 351.51121886L655.7480316 375.1332661L644.40944892 375.1332661L644.40944892 397.81043147L655.7480316 397.81043147L655.7480316 445.05452597L644.40944892 445.05452597L644.40944892 467.73169133L655.7480316 467.73169133L655.7480316 491.35373858z"></path><path class="e lc27dda5a-ab6c-4f20-9c48-c8f0f3ef7419 lc27dda5a-ab6c-4f20-9c48-c8f0f3ef7419" id="e18" transform="matrix(1,0,0,1,-434.15353938185456,506.5124626121636)" d="M690.8976379 408.20413226A7.37007874 7.37007874 0 1 0 705.6377954 408.20413226A7.37007874 7.37007874 0 1 0 690.8976379 408.20413226z"></path><path class="e lc27dda5a-ab6c-4f20-9c48-c8f0f3ef7419 lc27dda5a-ab6c-4f20-9c48-c8f0f3ef7419" id="e19" transform="matrix(1,0,0,1,-434.15353938185456,506.5124626121636)" d="M685.0393702 447.88917164A13.22834646 13.22834646 0 1 0 711.4960631 447.88917164A13.22834646 13.22834646 0 1 0 685.0393702 447.88917164z"></path></g><g id="g1f37852a-c024-4485-9e5f-e3e78d0354e9"><path class="e le678cc34-f4bc-4d7a-8d14-87821d5346cc le678cc34-f4bc-4d7a-8d14-87821d5346cc" id="e20" transform="matrix(1,0,0,1,-491.5812562313061,481.2442671984047)" d="M1014.8031498 491.35373858L1014.8031498 406.31436848L985.98425216 406.31436848L985.98425216 394.9757858L963.3070868 394.9757858L963.3070868 406.31436848L905.6692915 406.31436848L905.6692915 394.9757858L882.99212614 394.9757858L882.99212614 406.31436848L854.1732285 406.31436848L854.1732285 491.35373858L882.99212614 491.35373858L882.99212614 502.69232126L905.6692915 502.69232126L905.6692915 491.35373858L963.3070868 491.35373858L963.3070868 502.69232126L985.98425216 502.69232126L985.98425216 491.35373858L1014.8031498 491.35373858z"></path></g></g></g><style type="text/css">.le678cc34-f4bc-4d7a-8d14-87821d5346cc { stroke: #000000; fill: none; }.lc27dda5a-ab6c-4f20-9c48-c8f0f3ef7419 { stroke: #e53595; fill: none; }</style><text y="1172" x="20">
  <tspan>Glowforge® print settings</tspan>
  <tspan x="20" dy="20">Design id: 7BG1AYAKJXTJ5D8G8HIYNQYSEF6Y6</tspan>
  <tspan x="20" dy="20">Timestamp: Fri Aug 02 2024 15:56:41 GMT-0700 (Pacific Daylight Time)</tspan>
  <tspan x="20" dy="20">Version: 1.0</tspan>
  <tspan x="20" dy="20" fill="#000000">Step 0: #000000 Cut</tspan>
  <tspan x="20" dy="20" fill="#e53595">Step 1: #e53595 Cut</tspan>
</text></svg>