<?xml version="1.0" encoding="utf-8"?>
<!-- Generator: Adobe Illustrator 27.9.5, SVG Export Plug-In . SVG Version: 9.03 Build 54986)  -->
<svg version="1.1" id="圖層_1" xmlns="http://www.w3.org/2000/svg" xmlns:xlink="http://www.w3.org/1999/xlink" x="0px" y="0px"
	 viewBox="0 0 684.4 863.6" style="enable-background:new 0 0 684.4 863.6;" xml:space="preserve">
<style type="text/css">
	.st0{fill:#FFFFFF;stroke:#000000;stroke-miterlimit:10;}
</style>
<path class="st0" d="M425.3,351.4v-36.4h-8.5V247h-28.3v8.5h-32.3V247h-31.8v8.5h-32.3V247h-28.4v67.9h-8.5v36.4h8.5v32.4h-8.5v37.1
	h8.5v32.4h-8.5V565l24.1,31.2l5.7,7.3l7.7,9.9h95.2l7.7-9.9l5.7-7.3l24.1-31.2V453.2h-8.5v-32.4h8.5v-37.1h-8.5v-32.4H425.3z
	 M355.9,479.8h32.6v8.5h-32.6V479.8z M324.7,479.8v8.5h-32.6v-8.5H324.7z M285.4,282.4h7.1v14.2h-7.1V282.4z M340.3,599.7
	c-29.2,0-52.9-23.7-52.9-52.9c0-29.2,23.7-52.9,52.9-52.9s52.9,23.7,52.9,52.9C393.1,576.1,369.5,599.7,340.3,599.7z M395.1,296.6
	H388v-14.2h7.1V296.6z"/>
<polygon class="st0" points="416.8,694.5 416.8,717.6 425.3,717.6 425.3,750.8 416.8,750.8 416.8,773.8 425.3,773.8 425.3,807 
	416.8,807 416.8,831 402.6,831 388.7,831.1 388.7,839.6 355.6,839.6 355.6,831.1 355.9,831.1 355.9,831 340.3,831.1 324.7,831 
	324.7,831.1 325,831.1 325,839.6 291.8,839.6 291.8,831.1 277.9,831 263.7,831 263.7,807 255.2,807 255.2,773.8 263.7,773.8 
	263.7,750.8 255.2,750.8 255.2,717.6 263.7,717.6 263.7,694.5 255.2,694.5 255.2,661.3 263.7,661.3 263.7,638.3 416.8,638.3 
	416.8,661.3 425.3,661.3 425.3,694.5 "/>
<polygon class="st0" points="416.8,77.1 416.8,100.2 425.3,100.2 425.3,133.4 416.8,133.4 416.8,213.7 402.6,213.7 388.7,213.7 
	388.7,222.2 355.6,222.2 355.6,213.7 355.9,213.7 355.9,213.7 340.3,213.7 324.7,213.7 324.7,213.7 325,213.7 325,222.2 
	291.8,222.2 291.8,213.7 277.9,213.7 263.7,213.7 263.7,133.4 255.2,133.4 255.2,100.2 263.7,100.2 263.7,77.1 255.2,77.1 255.2,44 
	263.7,44 263.7,20.9 416.8,20.9 416.8,44 425.3,44 425.3,77.1 "/>
<rect x="79.7" y="626.1" class="st0" width="0.6" height="0"/>
<path class="st0" d="M623.1,255.5h-32.6V247l-23.7,0v8.5h-32.6V247h-23.7v8.5H478V247h-23.4v34.7h-8.5v33.2h8.5v36.3h-8.5v33.2h16.1
	c58,0,105.1,46.6,105.1,104.1H591v-8.5h32.6v8.5h23.8V247h-24.3V255.5z"/>
<path class="st0" d="M57.4,255.5l32.6,0l0-8.5h23.7l0,8.5l32.6,0V247l23.7,0v8.5h32.6V247l23.4,0l0,34.7h8.5l0,33.2h-8.5v36.3h8.5
	l0,33.2h-16.1c-58,0-105.1,46.6-105.1,104.1H89.5l0-8.5H56.9v8.5l-23.8,0l0-241.3h24.3V255.5z"/>
</svg>
